<svg width="203" height="66" viewBox="0 0 203 66" fill="none" xmlns="http://www.w3.org/2000/svg">
<path fill-rule="evenodd" clip-rule="evenodd" d="M53.3582 16.8232H8.35815V24.3232C11.1196 24.3232 13.3582 26.5618 13.3582 29.3232V39.3232C13.3582 46.3942 13.3582 49.9297 15.5549 52.1265C17.7516 54.3232 21.2871 54.3232 28.3583 54.3232H33.3583C40.4293 54.3232 43.9648 54.3232 46.1615 52.1265C48.3583 49.9297 48.3582 46.3942 48.3582 39.3232V29.3232C48.3582 26.5618 50.5967 24.3232 53.3582 24.3232V16.8232ZM27.1083 29.3232C27.1083 27.9425 25.9888 26.8232 24.6082 26.8232C23.2275 26.8232 22.1082 27.9425 22.1082 29.3232V41.8232C22.1082 43.204 23.2275 44.3232 24.6082 44.3232C25.9888 44.3232 27.1083 43.204 27.1083 41.8232V29.3232ZM39.6083 29.3232C39.6083 27.9425 38.4888 26.8232 37.1083 26.8232C35.7275 26.8232 34.6083 27.9425 34.6083 29.3232V41.8232C34.6083 43.204 35.7275 44.3232 37.1083 44.3232C38.4888 44.3232 39.6083 43.204 39.6083 41.8232V29.3232Z" fill="#CA4444"/>
<path d="M26.0283 10.2497C26.3133 9.98392 26.9411 9.74907 27.8143 9.58154C28.6876 9.41404 29.7573 9.32324 30.8581 9.32324C31.9588 9.32324 33.0286 9.41404 33.9018 9.58154C34.7751 9.74907 35.4028 9.98392 35.6878 10.2497" stroke="#CA4444" stroke-width="2" stroke-linecap="round"/>
<path d="M86.5571 14.1243L88.0903 12.5911C89.0666 11.6148 90.6495 11.6148 91.6259 12.5911L98.0903 19.0556C99.0666 20.0319 99.0666 21.6148 98.0903 22.5911L93.6093 27.0722C92.8621 27.8194 92.6768 28.9609 93.1494 29.906C95.8813 35.3699 100.312 39.8001 105.775 42.5321C106.721 43.0046 107.862 42.8194 108.609 42.0721L113.09 37.5911C114.067 36.6149 115.65 36.6149 116.626 37.5911L123.09 44.0556C124.067 45.0319 124.067 46.6149 123.09 47.5911L121.557 49.1244C116.279 54.4026 107.922 54.9966 101.951 50.5176L98.9296 48.2519C94.5707 44.9829 90.6986 41.1109 87.4295 36.7519L85.1637 33.7309C80.6849 27.7591 81.2788 19.4027 86.5571 14.1243Z" fill="#C7E7AE"/>
<path fill-rule="evenodd" clip-rule="evenodd" d="M185.868 27.8132L190.358 23.3232C191.721 21.9601 192.403 21.2785 192.767 20.5433C193.46 19.1444 193.46 17.502 192.767 16.1031C192.403 15.3679 191.721 14.6863 190.358 13.3232C188.995 11.9601 188.313 11.2785 187.578 10.9142C186.179 10.221 184.537 10.221 183.138 10.9142C182.403 11.2785 181.721 11.9601 180.358 13.3232L175.812 17.8699C178.221 21.9964 181.687 25.4353 185.868 27.8132ZM172.175 21.506L154.999 38.6822C153.936 39.745 153.405 40.2762 153.056 40.929C152.706 41.5817 152.559 42.3185 152.264 43.7922L150.726 51.4847C150.559 52.3162 150.476 52.732 150.713 52.9685C150.949 53.205 151.365 53.1217 152.197 52.9555L159.889 51.417C161.363 51.1222 162.1 50.975 162.752 50.6255C163.405 50.2762 163.936 49.745 164.999 48.6822L182.223 31.4587C178.168 28.9197 174.739 25.5139 172.175 21.506Z" fill="white"/>
</svg>
