<svg width="56" height="69" viewBox="0 0 56 69" fill="none" xmlns="http://www.w3.org/2000/svg">
<path d="M46.3673 38.6165C44.4968 29.2027 53.4321 23.6816 53.4321 23.6816C53.4321 23.6816 49.9508 18.6449 44.1 17.3492C38.2521 16.0507 35.3252 17.6731 32.4041 18.8899C29.4802 20.1098 28.0211 20.1098 28.0211 20.1098C23.8016 20.1098 20.717 15.6421 12.6777 17.6761C7.13915 19.0738 1.30867 25.4674 0.255239 33.0984C-0.798195 40.7322 1.47507 50.4728 5.85804 58.022C10.241 65.5771 14.7058 68.4164 17.8748 68.4981C21.0439 68.5768 24.2072 66.2278 28.0211 65.6558C31.8381 65.0897 34.1871 67.0391 37.931 68.0925C41.6603 69.1431 42.9677 68.1684 47.2631 64.5149C51.5702 60.8613 55.4689 50.3824 55.4689 50.3824C55.4689 50.3824 48.2378 48.0361 46.3673 38.6165Z" fill="black"/>
<path d="M38.0856 11.2589C42.2292 7.03653 40.8257 0.499878 40.8257 0.499878C40.8257 0.499878 35.007 1.52125 31.1083 5.57738C27.2126 9.63649 27.8575 16.0476 27.8575 16.0476C27.8575 16.0476 33.9418 15.4786 38.0856 11.2589Z" fill="black"/>
</svg>
