<svg width="55" height="57" viewBox="0 0 55 57" fill="none" xmlns="http://www.w3.org/2000/svg">
<path fill-rule="evenodd" clip-rule="evenodd" d="M6.875 29.2918C6.87503 31.1496 6.87934 32.0828 7.46079 32.6642C8.04657 33.25 8.98938 33.25 10.875 33.25H16.8757C17.5787 33.25 17.9303 33.25 18.1935 33.4419C18.4567 33.6337 18.5644 33.9683 18.7796 34.6376L18.7796 34.6376L20.1787 38.9874C20.394 39.6566 20.5016 39.9913 20.7648 40.1831C21.0281 40.375 21.3796 40.375 22.0826 40.375H32.9174C33.6204 40.375 33.9719 40.375 34.2352 40.1831C34.4984 39.9913 34.606 39.6567 34.8213 38.9874L36.2204 34.6376C36.4356 33.9683 36.5432 33.6337 36.8065 33.4419C37.0697 33.25 37.4213 33.25 38.1243 33.25H44.125C46.0106 33.25 46.9534 33.25 47.5392 32.6642C48.125 32.0784 48.125 31.1356 48.125 29.25L48.125 46.25C48.125 49.0784 48.125 50.4926 47.2463 51.3713C46.3676 52.25 44.9534 52.25 42.125 52.25H12.875C10.0466 52.25 8.63236 52.25 7.75368 51.3713C6.875 50.4926 6.875 49.0784 6.875 46.25V29.2918Z" fill="#A9D273"/>
<path d="M36.6667 14.25H44.125C46.0106 14.25 46.9534 14.25 47.5392 14.8358C48.125 15.4216 48.125 16.3644 48.125 18.25V48.25C48.125 50.1356 48.125 51.0784 47.5392 51.6642C46.9534 52.25 46.0106 52.25 44.125 52.25H10.875C8.98938 52.25 8.04657 52.25 7.46079 51.6642C6.875 51.0784 6.875 50.1356 6.875 48.25V18.25C6.875 16.3644 6.875 15.4216 7.46079 14.8358C8.04657 14.25 8.98938 14.25 10.875 14.25H18.3333" stroke="#A9D273" stroke-width="2"/>
<path d="M18.3334 23.75L27.5 30.875M27.5 30.875L36.6667 23.75M27.5 30.875L27.5 7.125" stroke="#A9D273" stroke-width="2"/>
</svg>
