<svg width="54" height="54" viewBox="0 0 54 54" fill="none" xmlns="http://www.w3.org/2000/svg">
<path fill-rule="evenodd" clip-rule="evenodd" d="M14.625 36H36C40.2426 36 42.364 36 43.682 34.682C45 33.364 45 31.2426 45 27V15.75C45 11.5074 45 9.38604 43.682 8.06802C42.364 6.75 40.2426 6.75 36 6.75H18C13.7574 6.75 11.636 6.75 10.318 8.06802C9 9.38604 9 11.5074 9 15.75V41.625C9 38.5184 11.5184 36 14.625 36ZM20.25 16C19.1454 16 18.25 16.8954 18.25 18C18.25 19.1046 19.1454 20 20.25 20H33.75C34.8546 20 35.75 19.1046 35.75 18C35.75 16.8954 34.8546 16 33.75 16L20.25 16Z" fill="#222222"/>
<path d="M43.682 34.682L42.9749 33.9749L43.682 34.682ZM43.682 8.06802L44.3891 7.36091V7.36091L43.682 8.06802ZM10.318 8.06802L9.61091 7.36091L9.61091 7.36091L10.318 8.06802ZM20.25 16V15V16ZM33.75 16V17V16ZM36 35H14.625V37H36V35ZM42.9749 33.9749C42.5326 34.4171 41.919 34.6943 40.8045 34.8442C39.6612 34.9979 38.1496 35 36 35V37C38.0931 37 39.7634 37.0021 41.071 36.8263C42.4073 36.6467 43.5133 36.2649 44.3891 35.3891L42.9749 33.9749ZM44 27C44 29.1496 43.9979 30.6612 43.8442 31.8045C43.6943 32.919 43.4171 33.5326 42.9749 33.9749L44.3891 35.3891C45.2649 34.5133 45.6467 33.4073 45.8263 32.071C46.0021 30.7634 46 29.0931 46 27H44ZM44 15.75V27H46V15.75H44ZM42.9749 8.77513C43.4171 9.21737 43.6943 9.831 43.8442 10.9455C43.9979 12.0888 44 13.6004 44 15.75H46C46 13.6569 46.0021 11.9866 45.8263 10.679C45.6467 9.34273 45.2649 8.23669 44.3891 7.36091L42.9749 8.77513ZM36 7.75C38.1496 7.75 39.6612 7.75212 40.8045 7.90584C41.919 8.05568 42.5326 8.33289 42.9749 8.77513L44.3891 7.36091C43.5133 6.48513 42.4073 6.10333 41.071 5.92367C39.7634 5.74788 38.0931 5.75 36 5.75V7.75ZM18 7.75H36V5.75H18V7.75ZM11.0251 8.77513C11.4674 8.33289 12.081 8.05568 13.1955 7.90584C14.3388 7.75212 15.8504 7.75 18 7.75V5.75C15.9069 5.75 14.2366 5.74788 12.929 5.92367C11.5927 6.10333 10.4867 6.48513 9.61091 7.36091L11.0251 8.77513ZM10 15.75C10 13.6004 10.0021 12.0888 10.1558 10.9455C10.3057 9.831 10.5829 9.21737 11.0251 8.77513L9.61091 7.36091C8.73513 8.23669 8.35333 9.34273 8.17367 10.679C7.99788 11.9866 8 13.6569 8 15.75H10ZM10 41.625V15.75H8V41.625H10ZM14.625 35C10.9661 35 8 37.9661 8 41.625H10C10 39.0707 12.0707 37 14.625 37V35ZM19.25 18C19.25 17.4477 19.6977 17 20.25 17V15C18.5931 15 17.25 16.3431 17.25 18H19.25ZM20.25 19C19.6977 19 19.25 18.5523 19.25 18H17.25C17.25 19.6569 18.5931 21 20.25 21V19ZM33.75 19H20.25V21H33.75V19ZM34.75 18C34.75 18.5523 34.3023 19 33.75 19V21C35.4069 21 36.75 19.6569 36.75 18H34.75ZM33.75 17C34.3023 17 34.75 17.4477 34.75 18H36.75C36.75 16.3431 35.4069 15 33.75 15V17ZM20.25 17L33.75 17V15L20.25 15V17ZM24.75 46.25H14.625V48.25H24.75V46.25ZM8 41.625C8 45.2839 10.9661 48.25 14.625 48.25V46.25C12.0707 46.25 10 44.1793 10 41.625H8Z" fill="#222222"/>
<path d="M45 47.25H22.5" stroke="#222222" stroke-width="2" stroke-linecap="round"/>
</svg>
