<svg width="55" height="53" viewBox="0 0 55 53" fill="none" xmlns="http://www.w3.org/2000/svg">
<path fill-rule="evenodd" clip-rule="evenodd" d="M15.1157 27.9943L13.4113 26.6804C12.9817 28.0169 12.75 29.4391 12.75 30.9157C12.75 38.8203 19.389 45.1657 27.5 45.1657C35.611 45.1657 42.25 38.8203 42.25 30.9157C42.25 29.4391 42.0183 28.0169 41.5887 26.6804L39.8843 27.9943C40.1234 28.9315 40.25 29.91 40.25 30.9157C40.25 37.6466 34.5769 43.1657 27.5 43.1657C20.4231 43.1657 14.75 37.6466 14.75 30.9157C14.75 29.91 14.8766 28.9315 15.1157 27.9943Z" fill="#222222"/>
<path d="M27.5001 8.83334L26.8895 8.04136L27.5001 7.57069L28.1106 8.04136L27.5001 8.83334ZM28.5001 28.7083C28.5001 29.2606 28.0524 29.7083 27.5001 29.7083C26.9478 29.7083 26.5001 29.2606 26.5001 28.7083L28.5001 28.7083ZM15.4312 16.8747L26.8895 8.04136L28.1106 9.62532L16.6523 18.4587L15.4312 16.8747ZM28.1106 8.04136L39.569 16.8747L38.3479 18.4587L26.8895 9.62532L28.1106 8.04136ZM28.5001 8.83334L28.5001 28.7083L26.5001 28.7083L26.5001 8.83334L28.5001 8.83334Z" fill="#222222"/>
</svg>
