<svg width="473" height="24" viewBox="0 0 473 24" fill="none" xmlns="http://www.w3.org/2000/svg">
<path d="M33.065 6.98574C32.2971 7.01021 31.536 7.04083 30.7679 7.05668C30.3605 7.06464 30.2145 7.11784 30.0482 7.16737C29.9152 7.20699 29.7617 7.21952 29.5146 7.22726C27.4312 7.29052 25.3544 7.35748 23.2777 7.4232C23.0169 7.40753 22.8896 7.38183 22.9493 7.35094C22.9824 7.3324 23.0622 7.30641 23.1423 7.30383C24.5646 7.25627 25.9801 7.20748 27.4092 7.16977C27.8166 7.15935 27.9294 7.10496 28.1358 7.06031C28.2024 7.04542 28.2556 7.02317 28.3423 7.01442C28.429 7.00444 28.5559 7.0055 28.6695 7.00288C30.9665 6.92946 33.2637 6.85728 35.5607 6.78386C35.8215 6.79953 35.9488 6.82523 35.8892 6.85613C35.856 6.87466 35.7762 6.90065 35.6961 6.90323C34.8147 6.93033 33.9398 6.95742 33.065 6.98574Z" fill="#FFE492"/>
<path d="M453.873 12.6674C453.525 12.6826 453.085 12.7042 452.723 12.6332C452.549 12.5989 452.362 12.5881 452.135 12.5958C451.807 12.6086 451.473 12.6189 451.14 12.6268C451.053 12.6281 450.939 12.6147 450.852 12.6037C450.665 12.5818 450.504 12.5451 450.303 12.5355C450.103 12.5259 449.862 12.5533 449.655 12.5475C449.381 12.5392 449.267 12.5061 449.34 12.4752C449.38 12.4579 449.46 12.4331 449.547 12.4293C450.782 12.382 450.788 12.382 451.137 12.4259C451.404 12.46 451.652 12.4979 452.033 12.4764C452.353 12.4587 452.694 12.4545 453.021 12.443C453.475 12.4276 453.475 12.4288 454.211 12.5054C454.398 12.5249 454.599 12.5234 454.839 12.512C455.046 12.5031 455.247 12.5225 455.414 12.5556C455.308 12.5976 455.155 12.6249 454.948 12.6326C454.614 12.6454 454.287 12.6545 453.873 12.6674Z" fill="#FFE492"/>
<path d="M441.57 12.3118C442.411 12.2848 443.26 12.2615 444.101 12.2307C444.448 12.2179 444.722 12.2311 444.963 12.2726C445.225 12.3179 445.518 12.3138 445.839 12.3047C446.039 12.2995 446.233 12.3189 446.368 12.3532C446.421 12.3667 446.408 12.3913 446.428 12.411C445.694 12.4342 444.953 12.4586 444.212 12.4793C444.125 12.4819 444.018 12.4697 443.937 12.46C443.757 12.4393 443.602 12.4026 443.409 12.3955C442.994 12.3788 442.58 12.4126 442.16 12.4193C441.959 12.4221 441.765 12.4039 441.631 12.3708C441.577 12.3549 441.59 12.3315 441.57 12.3118Z" fill="#FFE492"/>
<path d="M137.189 2.42056C138.063 2.39224 138.938 2.36517 139.813 2.33685C140.074 2.35375 140.194 2.37822 140.141 2.40911C140.108 2.42764 140.028 2.45363 139.948 2.4562C138.199 2.51407 136.449 2.56946 134.707 2.62485C134.446 2.60796 134.325 2.58348 134.378 2.5526C134.411 2.53407 134.491 2.50808 134.571 2.5055C135.439 2.47596 136.314 2.44888 137.189 2.42056Z" fill="#FFE492"/>
<path d="M2.38432 9.45264C1.99027 9.45563 1.57692 9.50156 1.13556 9.46784C1.04863 9.46182 0.928073 9.44237 0.934586 9.43132C0.947666 9.41291 1.02748 9.3895 1.1142 9.38203C1.49446 9.35085 1.96869 9.34653 2.1611 9.26044C2.25394 9.21617 2.42738 9.20123 2.66103 9.19232C2.90802 9.18218 3.08169 9.18561 3.27579 9.21109C3.5301 9.24385 3.74481 9.30486 4.14509 9.27243C4.16542 9.29202 4.2124 9.31402 4.19264 9.33244C4.17288 9.35086 4.08645 9.36815 4.0065 9.38175C3.93321 9.39411 3.83309 9.40528 3.73963 9.40908C3.29901 9.4244 2.85834 9.43728 2.38432 9.45264Z" fill="#FFE492"/>
<path d="M349.894 8.53792C350.221 8.52763 350.562 8.52224 350.882 8.50457C351.136 8.49069 351.296 8.49908 351.497 8.52833C351.839 8.57953 351.859 8.57459 352.694 8.58082C352.787 8.58192 352.901 8.60021 352.955 8.61613C352.988 8.62469 352.942 8.64815 352.902 8.6605C352.842 8.67658 352.756 8.69761 352.675 8.69772C352.148 8.70213 351.614 8.77546 351.099 8.69251C350.838 8.65104 350.55 8.63174 350.196 8.65068C349.983 8.66205 349.756 8.66728 349.535 8.67251C349.322 8.67772 349.101 8.66449 348.967 8.62777C348.772 8.57391 348.885 8.55284 349.233 8.55605C349.453 8.55821 349.674 8.54437 349.894 8.53792Z" fill="#FFE492"/>
<path d="M471.087 16.7044C471.508 16.6916 471.928 16.6763 472.356 16.6659C472.442 16.6633 472.55 16.6767 472.63 16.6852C472.951 16.7215 472.905 16.7841 472.919 16.8392C472.927 16.8968 472.186 16.9444 471.872 16.9056C471.524 16.862 471.209 16.8122 470.728 16.8398C470.542 16.8499 470.321 16.8281 470.2 16.7927C470.019 16.7415 470.119 16.7205 470.46 16.7237C470.66 16.7259 470.874 16.7121 471.087 16.7044Z" fill="#FFE492"/>
<path d="M258.77 0.52726C259.204 0.513146 259.638 0.491666 260.072 0.489845C260.326 0.48827 260.453 0.528656 260.393 0.558241C260.36 0.576726 260.281 0.602651 260.2 0.605219C259.332 0.635905 258.464 0.661678 257.596 0.689906C257.342 0.673042 257.215 0.647404 257.275 0.617819C257.308 0.599334 257.388 0.574638 257.468 0.570841C257.902 0.55304 258.336 0.541374 258.77 0.52726Z" fill="#FFE492"/>
<path d="M462.716 12.7545C463.136 12.7417 463.563 12.7226 463.984 12.7159C464.205 12.7132 464.379 12.7412 464.406 12.7731C464.42 12.7878 464.313 12.8138 464.226 12.82C463.626 12.8627 462.978 12.8685 462.35 12.8902C462.15 12.8966 461.936 12.8773 461.815 12.843C461.634 12.7904 461.734 12.7706 462.075 12.7739C462.288 12.7748 462.502 12.761 462.716 12.7545Z" fill="#FFE492"/>
<path d="M360.934 8.6818C361.148 8.67538 361.368 8.65917 361.575 8.66378C361.795 8.6696 361.936 8.70491 362.003 8.74032C362.078 8.78062 362.071 8.81858 362.005 8.85295C361.899 8.91186 361.792 8.90956 361.545 8.87072C361.163 8.81003 361.136 8.81741 360.382 8.82089C360.295 8.82101 360.188 8.80279 360.121 8.78697C360.02 8.76262 360.073 8.7246 360.306 8.70225C360.48 8.6861 360.72 8.68821 360.934 8.6818Z" fill="#FFE492"/>
<path d="M447.055 12.3848C447.369 12.3745 447.682 12.3581 447.996 12.3577C448.217 12.3562 448.391 12.3842 448.412 12.4148C448.418 12.4295 448.319 12.4542 448.239 12.4617C447.858 12.4954 447.431 12.4984 447.017 12.51C446.823 12.5152 446.609 12.4959 446.488 12.4617C446.307 12.4104 446.414 12.3869 446.741 12.3938C446.841 12.3961 446.948 12.3886 447.055 12.3848Z" fill="#FFE492"/>
<path d="M397.61 10.9856C397.143 11.001 396.701 10.9832 396.734 10.9512C396.78 10.9094 396.974 10.8821 397.174 10.8745C397.494 10.8618 397.815 10.8515 398.142 10.8437C398.349 10.8385 398.536 10.8567 398.704 10.8883C398.604 10.9278 398.451 10.9562 398.251 10.9651C398.044 10.974 397.824 10.9792 397.61 10.9856Z" fill="#FFE492"/>
<path d="M394.542 10.8351C394.856 10.8248 395.17 10.8085 395.484 10.808C395.704 10.8065 395.878 10.8345 395.899 10.8651C395.906 10.8799 395.806 10.9046 395.726 10.912C395.346 10.9457 394.918 10.9487 394.504 10.9603C394.31 10.9655 394.096 10.9462 393.976 10.912C393.794 10.8607 393.901 10.8372 394.229 10.8441C394.329 10.8464 394.435 10.8389 394.542 10.8351Z" fill="#FFE492"/>
<path d="M357.144 8.6796C357.458 8.66935 357.772 8.65295 358.086 8.65129C358.306 8.64976 358.48 8.67776 358.501 8.70842C358.508 8.72314 358.408 8.7466 358.328 8.75531C357.948 8.78897 357.52 8.79201 357.106 8.80363C356.913 8.8088 356.698 8.78945 356.578 8.75525C356.397 8.70394 356.503 8.68047 356.83 8.68739C356.931 8.6897 357.038 8.6822 357.144 8.6796Z" fill="#FFE492"/>
<path d="M355.388 8.61063C355.722 8.60035 355.829 8.59407 355.935 8.59392C356.136 8.59364 356.343 8.60809 356.464 8.64352C356.645 8.69482 356.538 8.70971 356.211 8.71261C355.79 8.71564 355.377 8.74199 354.956 8.74748C354.735 8.75023 354.561 8.721 354.547 8.69034C354.54 8.67562 354.64 8.6497 354.72 8.64469C355.001 8.62589 355.308 8.61442 355.388 8.61063Z" fill="#FFE492"/>
<path d="M391.72 1.37346C391.506 1.37988 391.279 1.39736 391.079 1.39151C390.811 1.38329 390.704 1.35033 390.77 1.31958C390.81 1.30236 390.883 1.27774 390.963 1.27395C391.391 1.25619 391.825 1.24455 392.252 1.23171C392.506 1.24975 392.62 1.27534 392.554 1.30609C392.514 1.32331 392.441 1.34671 392.361 1.35173C392.154 1.36427 391.933 1.36703 391.72 1.37346Z" fill="#FFE492"/>
<path d="M132.402 2.57409C132.609 2.57258 132.796 2.58825 132.957 2.61866C132.857 2.65801 132.711 2.68394 132.51 2.69525C132.41 2.70028 132.297 2.70411 132.19 2.70548C131.983 2.70822 131.796 2.69132 131.635 2.66091C131.734 2.62156 131.888 2.59562 132.081 2.58432C132.181 2.57928 132.295 2.57791 132.402 2.57409Z" fill="#FFE492"/>
<path d="M460.428 12.7537C460.421 12.7182 460.828 12.6772 461.195 12.6779C461.389 12.6789 461.589 12.6958 461.704 12.7287C461.878 12.7787 461.778 12.7984 461.451 12.7952C461.25 12.793 461.037 12.8142 460.836 12.8108C460.609 12.8099 460.475 12.7831 460.428 12.7537Z" fill="#FFE492"/>
<path d="M362.874 8.82621C362.867 8.81276 362.833 8.79689 362.853 8.78463C362.979 8.71713 363.747 8.69527 363.948 8.75375C363.982 8.76472 363.995 8.78306 363.969 8.79411C363.929 8.8113 363.856 8.83344 363.776 8.83844C363.569 8.85097 363.355 8.85738 363.142 8.8589C363.048 8.85903 362.961 8.83833 362.874 8.82621Z" fill="#FFE492"/>
<path d="M4.75859 9.25284C3.97087 9.27964 3.95748 9.27721 4.09681 9.21577C4.22287 9.16048 4.45617 9.1271 4.79679 9.12663C4.89697 9.1265 5.00376 9.1239 5.09066 9.12868C5.18426 9.13468 5.3181 9.14673 5.33836 9.1614C5.37886 9.18952 5.26568 9.22029 5.06562 9.24139C4.97895 9.25131 4.8654 9.24902 4.75859 9.25284Z" fill="#FFE492"/>
<path d="M142.268 2.38342C142.035 2.40454 141.834 2.39748 141.687 2.35851C141.539 2.31954 141.772 2.2727 142.18 2.26113C142.286 2.25853 142.4 2.24859 142.5 2.25335C142.6 2.25689 142.701 2.27143 142.761 2.28603C142.868 2.31037 142.802 2.34352 142.589 2.37196C142.502 2.3831 142.375 2.38082 142.268 2.38342Z" fill="#FFE492"/>
<path d="M459.039 12.6655C459.098 12.6496 459.158 12.6336 459.224 12.6189C459.471 12.6393 459.578 12.6636 459.512 12.6918C459.472 12.7089 459.392 12.7237 459.333 12.7396C459.086 12.7192 458.986 12.6937 459.039 12.6655Z" fill="#FFE492"/>
<path d="M15.4973 23.103C15.497 23.0883 15.5899 23.0649 15.6631 23.0599C15.8028 23.0512 15.9762 23.0681 16.0966 23.1021C16.2639 23.1508 16.1644 23.1766 15.8579 23.1636C15.6446 23.1541 15.4977 23.1299 15.4973 23.103Z" fill="#FFE492"/>
<path d="M365.581 7.68614C365.668 7.69704 365.755 7.70793 365.835 7.72006C365.722 7.76547 365.583 7.78523 365.436 7.7732C365.343 7.76598 365.262 7.75141 365.176 7.74052C365.288 7.6951 365.421 7.6778 365.581 7.68614Z" fill="#FFE492"/>
<path d="M363.265 7.63564C363.398 7.61711 363.558 7.62669 363.745 7.66191C363.685 7.6779 363.632 7.69632 363.559 7.70866C363.433 7.7284 363.266 7.71883 363.086 7.68238C363.139 7.66762 363.199 7.65164 363.265 7.63564Z" fill="#FFE492"/>
<path d="M361.495 7.6928C361.582 7.70369 361.669 7.71459 361.749 7.72671C361.637 7.77213 361.504 7.79187 361.35 7.77985C361.257 7.77264 361.177 7.75807 361.09 7.74717C361.203 7.70176 361.335 7.68323 361.495 7.6928Z" fill="#FFE492"/>
<path d="M360.192 7.63099C360.293 7.65528 360.24 7.68466 360.047 7.7179C359.961 7.70703 359.861 7.69863 359.794 7.68406C359.687 7.661 359.74 7.63039 359.939 7.59714C360.019 7.60924 360.106 7.62012 360.192 7.63099Z" fill="#FFE492"/>
</svg>
