<svg width="473" height="21" viewBox="0 0 473 21" fill="none" xmlns="http://www.w3.org/2000/svg">
<path d="M33.0655 6.63033C32.2976 6.65162 31.5365 6.67827 30.7684 6.69206C30.361 6.69898 30.215 6.74527 30.0487 6.78837C29.9157 6.82285 29.7622 6.83375 29.5151 6.84049C27.4317 6.89553 25.3549 6.95379 23.2782 7.01098C23.0174 6.99735 22.8901 6.97498 22.9498 6.9481C22.9829 6.93197 23.0627 6.90935 23.1428 6.90711C24.5651 6.86573 25.9806 6.82327 27.4097 6.79046C27.8171 6.78139 27.9299 6.73407 28.1363 6.69521C28.2029 6.68226 28.2561 6.6629 28.3428 6.65529C28.4295 6.6466 28.5564 6.64753 28.67 6.64524C30.967 6.58136 33.2641 6.51856 35.5612 6.45467C35.822 6.4683 35.9493 6.49067 35.8897 6.51755C35.8565 6.53368 35.7767 6.55629 35.6966 6.55854C34.8151 6.58211 33.9403 6.60568 33.0655 6.63033Z" fill="#FFE492"/>
<path d="M453.873 11.5741C453.526 11.5874 453.085 11.6062 452.723 11.5444C452.549 11.5146 452.362 11.5052 452.135 11.5119C451.808 11.523 451.474 11.532 451.14 11.5388C451.053 11.54 450.939 11.5283 450.852 11.5188C450.665 11.4997 450.504 11.4677 450.303 11.4594C450.103 11.451 449.863 11.4749 449.656 11.4698C449.381 11.4626 449.267 11.4338 449.34 11.4069C449.38 11.3919 449.46 11.3703 449.547 11.367C450.782 11.3258 450.789 11.3258 451.137 11.364C451.405 11.3937 451.652 11.4267 452.033 11.408C452.353 11.3926 452.694 11.3889 453.021 11.3789C453.475 11.3655 453.475 11.3666 454.211 11.4332C454.399 11.4502 454.599 11.4489 454.839 11.4389C455.046 11.4312 455.247 11.4481 455.414 11.4768C455.308 11.5134 455.155 11.5372 454.948 11.5439C454.614 11.555 454.287 11.5629 453.873 11.5741Z" fill="#FFE492"/>
<path d="M441.571 11.2648C442.412 11.2413 443.26 11.221 444.101 11.1942C444.449 11.1831 444.723 11.1946 444.964 11.2307C445.225 11.27 445.519 11.2665 445.839 11.2586C446.04 11.2541 446.234 11.271 446.368 11.3008C446.422 11.3125 446.409 11.334 446.429 11.3511C445.694 11.3713 444.953 11.3925 444.212 11.4105C444.125 11.4128 444.018 11.4022 443.938 11.3937C443.757 11.3757 443.603 11.3438 443.409 11.3376C442.995 11.3231 442.581 11.3525 442.16 11.3584C441.96 11.3607 441.766 11.3449 441.632 11.3161C441.578 11.3023 441.591 11.2819 441.571 11.2648Z" fill="#FFE492"/>
<path d="M137.189 2.65822C138.064 2.63358 138.938 2.61003 139.813 2.58539C140.074 2.60009 140.195 2.62138 140.142 2.64826C140.108 2.66438 140.029 2.68699 139.949 2.68924C138.199 2.73959 136.45 2.78779 134.707 2.83598C134.446 2.82128 134.325 2.79999 134.378 2.77311C134.412 2.75699 134.491 2.73438 134.571 2.73213C135.439 2.70643 136.314 2.68286 137.189 2.65822Z" fill="#FFE492"/>
<path d="M2.38432 8.77695C1.99027 8.77955 1.57692 8.81952 1.13556 8.79017C1.04863 8.78494 0.928073 8.76801 0.934586 8.7584C0.947666 8.74238 1.02748 8.72201 1.1142 8.71551C1.49446 8.68838 1.96869 8.68462 2.1611 8.60971C2.25394 8.57119 2.42738 8.55819 2.66103 8.55044C2.90802 8.54161 3.08169 8.5446 3.27579 8.56677C3.5301 8.59527 3.74481 8.64836 4.14509 8.62015C4.16542 8.63719 4.2124 8.65634 4.19264 8.67236C4.17288 8.68839 4.08645 8.70343 4.0065 8.71526C3.93321 8.72602 3.83309 8.73574 3.73963 8.73905C3.29901 8.75238 2.85834 8.76358 2.38432 8.77695Z" fill="#FFE492"/>
<path d="M349.894 7.98104C350.221 7.97209 350.562 7.9674 350.882 7.95203C351.136 7.93995 351.296 7.94725 351.497 7.9727C351.839 8.01725 351.859 8.01295 352.694 8.01837C352.787 8.01933 352.901 8.03524 352.955 8.0491C352.989 8.05655 352.942 8.07696 352.902 8.08771C352.842 8.1017 352.756 8.11999 352.676 8.12009C352.148 8.12393 351.615 8.18773 351.099 8.11556C350.838 8.07947 350.55 8.06268 350.197 8.07916C349.983 8.08905 349.756 8.09361 349.535 8.09815C349.322 8.10269 349.101 8.09118 348.967 8.05923C348.773 8.01236 348.886 7.99403 349.233 7.99682C349.454 7.9987 349.674 7.98666 349.894 7.98104Z" fill="#FFE492"/>
<path d="M471.087 15.087C471.508 15.0758 471.928 15.0625 472.356 15.0535C472.442 15.0512 472.55 15.0629 472.63 15.0702C472.951 15.1019 472.905 15.1563 472.919 15.2043C472.927 15.2544 472.186 15.2958 471.872 15.2621C471.524 15.2241 471.209 15.1807 470.728 15.2048C470.542 15.2135 470.321 15.1946 470.2 15.1638C470.019 15.1192 470.119 15.101 470.46 15.1037C470.66 15.1056 470.874 15.0936 471.087 15.087Z" fill="#FFE492"/>
<path d="M258.77 1.01075C259.204 0.998468 259.638 0.979778 260.072 0.978194C260.326 0.976823 260.453 1.01196 260.394 1.03771C260.361 1.05379 260.281 1.07635 260.201 1.07858C259.333 1.10528 258.465 1.12771 257.597 1.15227C257.343 1.1376 257.215 1.11529 257.275 1.08955C257.308 1.07346 257.388 1.05197 257.468 1.04867C257.902 1.03318 258.336 1.02303 258.77 1.01075Z" fill="#FFE492"/>
<path d="M462.716 11.6501C463.137 11.6389 463.564 11.6224 463.984 11.6165C464.205 11.6141 464.379 11.6385 464.406 11.6663C464.42 11.6791 464.313 11.7017 464.227 11.7071C463.626 11.7442 462.978 11.7492 462.35 11.7682C462.15 11.7738 461.936 11.7569 461.815 11.7271C461.634 11.6813 461.734 11.6641 462.075 11.6669C462.289 11.6677 462.502 11.6557 462.716 11.6501Z" fill="#FFE492"/>
<path d="M360.934 8.1063C361.148 8.10072 361.368 8.08661 361.575 8.09062C361.796 8.09569 361.937 8.12641 362.004 8.15722C362.078 8.19229 362.072 8.22532 362.006 8.25523C361.9 8.30649 361.793 8.30448 361.545 8.27069C361.163 8.21788 361.137 8.2243 360.382 8.22733C360.295 8.22744 360.188 8.21158 360.121 8.19781C360.021 8.17663 360.074 8.14355 360.307 8.1241C360.48 8.11004 360.721 8.11188 360.934 8.1063Z" fill="#FFE492"/>
<path d="M447.055 11.3283C447.369 11.3194 447.683 11.3052 447.997 11.3048C448.217 11.3035 448.391 11.3278 448.412 11.3545C448.419 11.3673 448.319 11.3888 448.239 11.3953C447.859 11.4246 447.431 11.4272 447.017 11.4373C446.823 11.4418 446.609 11.425 446.489 11.3952C446.307 11.3506 446.414 11.3302 446.741 11.3362C446.842 11.3382 446.948 11.3317 447.055 11.3283Z" fill="#FFE492"/>
<path d="M397.61 10.1109C397.143 10.1243 396.701 10.1088 396.734 10.081C396.78 10.0446 396.974 10.0209 397.174 10.0142C397.494 10.0032 397.815 9.99423 398.142 9.98743C398.349 9.98291 398.536 9.99871 398.704 10.0263C398.604 10.0606 398.451 10.0853 398.251 10.0931C398.044 10.1008 397.824 10.1053 397.61 10.1109Z" fill="#FFE492"/>
<path d="M394.543 9.97987C394.856 9.97095 395.17 9.95669 395.484 9.95632C395.704 9.95499 395.879 9.97934 395.899 10.006C395.906 10.0188 395.806 10.0403 395.726 10.0468C395.346 10.0761 394.918 10.0788 394.504 10.0889C394.311 10.0934 394.097 10.0765 393.976 10.0468C393.795 10.0021 393.901 9.98171 394.229 9.98773C394.329 9.98974 394.436 9.9832 394.543 9.97987Z" fill="#FFE492"/>
<path d="M357.145 8.10427C357.458 8.09535 357.772 8.08108 358.086 8.07964C358.306 8.07831 358.48 8.10268 358.501 8.12935C358.508 8.14216 358.408 8.16257 358.328 8.17015C357.948 8.19944 357.52 8.20209 357.106 8.21219C356.913 8.2167 356.699 8.19986 356.578 8.1701C356.397 8.12546 356.503 8.10503 356.831 8.11105C356.931 8.11306 357.038 8.10653 357.145 8.10427Z" fill="#FFE492"/>
<path d="M355.388 8.04434C355.722 8.0354 355.829 8.02993 355.936 8.0298C356.136 8.02957 356.343 8.04214 356.464 8.07297C356.645 8.11761 356.539 8.13056 356.211 8.13308C355.79 8.13572 355.377 8.15864 354.956 8.16342C354.736 8.16582 354.561 8.14038 354.548 8.1137C354.541 8.10089 354.641 8.07835 354.721 8.07398C355.001 8.05762 355.308 8.04764 355.388 8.04434Z" fill="#FFE492"/>
<path d="M391.72 1.74698C391.506 1.75257 391.279 1.76778 391.079 1.76268C390.812 1.75553 390.704 1.72685 390.771 1.7001C390.81 1.68511 390.884 1.66369 390.964 1.66039C391.391 1.64494 391.825 1.63482 392.252 1.62364C392.506 1.63934 392.62 1.66161 392.554 1.68836C392.514 1.70335 392.441 1.72371 392.361 1.72807C392.154 1.73899 391.934 1.74139 391.72 1.74698Z" fill="#FFE492"/>
<path d="M132.402 2.79171C132.609 2.7904 132.796 2.80404 132.957 2.8305C132.857 2.86474 132.711 2.8873 132.511 2.89714C132.411 2.90152 132.297 2.90485 132.19 2.90604C131.983 2.90842 131.796 2.89372 131.635 2.86726C131.735 2.83302 131.888 2.81045 132.081 2.80062C132.182 2.79624 132.295 2.79504 132.402 2.79171Z" fill="#FFE492"/>
<path d="M460.428 11.6493C460.421 11.6184 460.828 11.5827 461.195 11.5834C461.389 11.5842 461.59 11.5989 461.704 11.6276C461.878 11.6711 461.778 11.6882 461.451 11.6854C461.25 11.6835 461.037 11.7019 460.837 11.699C460.61 11.6982 460.476 11.6749 460.428 11.6493Z" fill="#FFE492"/>
<path d="M362.874 8.2319C362.867 8.22019 362.834 8.20639 362.853 8.19571C362.979 8.13698 363.747 8.11796 363.948 8.16885C363.982 8.17839 363.996 8.19435 363.969 8.20397C363.929 8.21893 363.856 8.23818 363.776 8.24254C363.569 8.25344 363.356 8.25902 363.142 8.26034C363.048 8.26045 362.961 8.24245 362.874 8.2319Z" fill="#FFE492"/>
<path d="M4.75859 8.60312C3.97087 8.62644 3.95748 8.62432 4.09681 8.57086C4.22287 8.52275 4.45617 8.4937 4.79679 8.4933C4.89697 8.49318 5.00376 8.49092 5.09066 8.49508C5.18426 8.5003 5.3181 8.51079 5.33836 8.52355C5.37886 8.54801 5.26568 8.5748 5.06562 8.59315C4.97895 8.60178 4.8654 8.59979 4.75859 8.60312Z" fill="#FFE492"/>
<path d="M142.268 2.6259C142.035 2.64429 141.834 2.63814 141.687 2.60423C141.539 2.57032 141.772 2.52956 142.18 2.51949C142.286 2.51724 142.4 2.50859 142.5 2.51273C142.6 2.5158 142.701 2.52845 142.761 2.54116C142.868 2.56234 142.802 2.59118 142.589 2.61594C142.502 2.62563 142.375 2.62364 142.268 2.6259Z" fill="#FFE492"/>
<path d="M459.039 11.5726C459.098 11.5587 459.158 11.5448 459.224 11.532C459.471 11.5497 459.578 11.5709 459.512 11.5954C459.472 11.6103 459.392 11.6232 459.333 11.637C459.086 11.6193 458.986 11.5971 459.039 11.5726Z" fill="#FFE492"/>
<path d="M15.4973 20.6546C15.497 20.6418 15.5899 20.6215 15.6631 20.6172C15.8028 20.6096 15.9762 20.6243 16.0966 20.6539C16.2639 20.6963 16.1644 20.7187 15.8579 20.7074C15.6446 20.6991 15.4977 20.678 15.4973 20.6546Z" fill="#FFE492"/>
<path d="M365.582 7.2399C365.668 7.24937 365.755 7.25885 365.835 7.2694C365.723 7.30892 365.583 7.32611 365.436 7.31564C365.343 7.30937 365.263 7.29669 365.176 7.28721C365.289 7.24769 365.422 7.23263 365.582 7.2399Z" fill="#FFE492"/>
<path d="M363.265 7.19593C363.398 7.17981 363.558 7.18814 363.745 7.21879C363.686 7.2327 363.633 7.24873 363.56 7.25946C363.433 7.27664 363.267 7.26832 363.086 7.2366C363.139 7.22376 363.199 7.20985 363.265 7.19593Z" fill="#FFE492"/>
<path d="M361.496 7.24567C361.582 7.25515 361.669 7.26463 361.749 7.27518C361.637 7.3147 361.504 7.33188 361.35 7.32142C361.257 7.31514 361.177 7.30246 361.09 7.29298C361.203 7.25346 361.336 7.23735 361.496 7.24567Z" fill="#FFE492"/>
<path d="M360.193 7.19185C360.293 7.21298 360.24 7.23855 360.048 7.26747C359.961 7.25801 359.861 7.2507 359.794 7.23803C359.687 7.21796 359.74 7.19132 359.939 7.16239C360.02 7.17292 360.106 7.18239 360.193 7.19185Z" fill="#FFE492"/>
</svg>
