<svg width="32" height="36" viewBox="0 0 32 36" fill="none" xmlns="http://www.w3.org/2000/svg">
<path fill-rule="evenodd" clip-rule="evenodd" d="M28.0001 9.30139H4V13.6302C5.47276 13.6302 6.66667 14.9222 6.66667 16.516V22.2877C6.66667 26.3689 6.66667 28.4094 7.83824 29.6773C9.00981 30.9452 10.8954 30.9452 14.6667 30.9452H17.3334C21.1046 30.9452 22.9902 30.9452 24.1618 29.6773C25.3334 28.4094 25.3334 26.3689 25.3334 22.2877V16.516C25.3334 14.9222 26.5273 13.6302 28.0001 13.6302V9.30139ZM14.0001 16.516C14.0001 15.7191 13.403 15.0731 12.6667 15.0731C11.9303 15.0731 11.3333 15.7191 11.3333 16.516V23.7306C11.3333 24.5275 11.9303 25.1735 12.6667 25.1735C13.403 25.1735 14.0001 24.5275 14.0001 23.7306V16.516ZM20.6667 16.516C20.6667 15.7191 20.0697 15.0731 19.3334 15.0731C18.597 15.0731 18.0001 15.7191 18.0001 16.516V23.7306C18.0001 24.5275 18.597 25.1735 19.3334 25.1735C20.0697 25.1735 20.6667 24.5275 20.6667 23.7306V16.516Z" fill="white"/>
<path d="M13.4241 5.50727C13.5761 5.35386 13.9109 5.21831 14.3766 5.12162C14.8423 5.02494 15.4129 4.97253 15.9999 4.97253C16.587 4.97253 17.1575 5.02494 17.6233 5.12162C18.089 5.21831 18.4238 5.35386 18.5758 5.50727" stroke="white" stroke-width="2" stroke-linecap="round"/>
</svg>
