<svg width="32" height="32" viewBox="0 0 32 32" fill="none" xmlns="http://www.w3.org/2000/svg">
<path fill-rule="evenodd" clip-rule="evenodd" d="M28.0001 8H4V12C5.47276 12 6.66667 13.1939 6.66667 14.6667V20C6.66667 23.7712 6.66667 25.6568 7.83824 26.8284C9.00981 28 10.8954 28 14.6667 28H17.3334C21.1046 28 22.9902 28 24.1618 26.8284C25.3334 25.6568 25.3334 23.7712 25.3334 20V14.6667C25.3334 13.1939 26.5273 12 28.0001 12V8ZM14.0001 14.6667C14.0001 13.9303 13.403 13.3333 12.6667 13.3333C11.9303 13.3333 11.3333 13.9303 11.3333 14.6667V21.3333C11.3333 22.0697 11.9303 22.6667 12.6667 22.6667C13.403 22.6667 14.0001 22.0697 14.0001 21.3333V14.6667ZM20.6667 14.6667C20.6667 13.9303 20.0697 13.3333 19.3334 13.3333C18.597 13.3333 18.0001 13.9303 18.0001 14.6667V21.3333C18.0001 22.0697 18.597 22.6667 19.3334 22.6667C20.0697 22.6667 20.6667 22.0697 20.6667 21.3333V14.6667Z" fill="#222222"/>
<path d="M13.4241 4.49412C13.5761 4.35236 13.9109 4.22711 14.3766 4.13776C14.8423 4.04843 15.4129 4 15.9999 4C16.587 4 17.1575 4.04843 17.6233 4.13776C18.089 4.22711 18.4238 4.35236 18.5758 4.49412" stroke="#222222" stroke-width="2" stroke-linecap="round"/>
</svg>
