<svg width="100" height="100" viewBox="0 0 100 100" fill="none" xmlns="http://www.w3.org/2000/svg">
<path d="M100 50C100 40.1109 97.0676 30.4439 91.5735 22.2215C86.0794 13.999 78.2705 7.5904 69.1342 3.80602C59.9979 0.0216417 49.9445 -0.968525 40.2455 0.960736C30.5464 2.89 21.6373 7.65204 14.6447 14.6447C7.65204 21.6373 2.89 30.5464 0.960736 40.2455C-0.968525 49.9445 0.0216418 59.9979 3.80602 69.1342C7.59041 78.2705 13.999 86.0794 22.2215 91.5735C30.4439 97.0676 40.1109 100 50 100V50H100Z" fill="#BEE3AE"/>
<path d="M100 50C100 56.5661 98.7067 63.0679 96.194 69.1342C93.6812 75.2005 89.9983 80.7124 85.3553 85.3553C80.7124 89.9983 75.2005 93.6812 69.1342 96.194C63.0679 98.7067 56.5661 100 50 100L50 50H100Z" fill="#C5F4EC"/>
</svg>
