<svg width="19" height="20" viewBox="0 0 19 20" fill="none" xmlns="http://www.w3.org/2000/svg">
<path d="M9.48901 0.500977C9.14844 0.500977 8.80811 0.519285 8.46948 0.555783C8.1591 0.587487 7.85253 0.63948 7.55008 0.702569C7.49155 0.714815 7.43298 0.727734 7.37445 0.741247C5.59245 1.14697 3.96529 2.05808 2.68809 3.36532C2.56932 3.48706 2.45305 3.61241 2.33935 3.74132C-1.11075 7.70216 -0.696703 13.7099 3.26417 17.16C7.05619 20.463 12.7641 20.2433 16.291 16.6585C16.41 16.5367 16.5262 16.4114 16.6397 16.2825C18.1623 14.5485 19.0013 12.3195 19 10.0119C19 4.75911 14.7418 0.500937 9.48901 0.500977ZM3.11069 3.84087C3.16078 3.78887 3.21277 3.7391 3.26382 3.68869C3.32278 3.63068 3.38143 3.57234 3.44167 3.51623C3.49461 3.46677 3.54914 3.41922 3.60336 3.37103C3.66454 3.31681 3.72541 3.2626 3.78819 3.21029C3.84335 3.16369 3.9001 3.11899 3.95653 3.07397C4.01994 3.02324 4.08334 2.97252 4.14865 2.92369C4.20635 2.88026 4.265 2.8381 4.32397 2.79688C4.3896 2.74996 4.45554 2.70177 4.52243 2.65802C4.58235 2.61744 4.6429 2.57813 4.70377 2.53914C4.77162 2.4957 4.83978 2.4529 4.90858 2.41232C4.97052 2.37535 5.03285 2.33897 5.09562 2.30326C5.16581 2.26332 5.23627 2.22432 5.30709 2.18628C5.37049 2.15248 5.4339 2.11938 5.4973 2.08705C5.56959 2.05059 5.6425 2.0154 5.71574 1.98084C5.77915 1.95072 5.84509 1.92061 5.9104 1.89207C5.9849 1.86037 6.06035 1.82867 6.13581 1.79696C6.20143 1.77002 6.26674 1.7437 6.333 1.71834C6.40972 1.68917 6.48739 1.66191 6.56507 1.63464C6.63133 1.6115 6.69759 1.58836 6.7648 1.56648C6.84374 1.54112 6.92331 1.51766 7.0032 1.49452C7.0701 1.47518 7.13636 1.4552 7.20357 1.43713C7.22925 1.43047 7.25493 1.42509 7.28061 1.41843C6.34219 2.32962 5.64579 3.46047 5.25446 4.70858C4.50198 4.51012 3.77352 4.22979 3.08216 3.87257C3.09262 3.86147 3.1015 3.85038 3.11069 3.84087ZM2.6548 4.35129C3.41635 4.76391 4.22391 5.0853 5.06075 5.30873C4.65051 6.73521 4.43517 8.21064 4.42066 9.69486H0.619454C0.688528 7.73763 1.40427 5.8585 2.6548 4.35129ZM2.6548 15.6725C1.40435 14.1652 0.688607 12.2861 0.619454 10.3289H4.42066C4.43517 11.8132 4.65047 13.2886 5.06075 14.7151C4.22395 14.9386 3.41639 15.2599 2.6548 15.6725ZM7.20167 18.5879C7.13763 18.5718 7.07137 18.5508 7.00542 18.5315C6.92521 18.508 6.84469 18.4846 6.76543 18.4589C6.69854 18.4373 6.6326 18.4142 6.56665 18.391C6.48866 18.3641 6.41067 18.3365 6.33363 18.307C6.26769 18.282 6.2027 18.2557 6.13739 18.229C6.06162 18.1973 5.98585 18.1656 5.91071 18.1339C5.84604 18.1054 5.78168 18.076 5.71764 18.0458C5.64377 18.0109 5.57022 17.9754 5.49572 17.9386C5.43231 17.9069 5.36891 17.8752 5.3055 17.8407C5.23385 17.8023 5.16284 17.763 5.09182 17.7224C5.02841 17.6872 4.96818 17.6511 4.90699 17.6143C4.83724 17.5725 4.76877 17.5294 4.70029 17.4853C4.64005 17.4469 4.57981 17.4079 4.52053 17.368C4.453 17.3223 4.38611 17.2748 4.31985 17.2272C4.26183 17.1857 4.20381 17.1442 4.14675 17.1004C4.08112 17.051 4.01677 16.9999 3.95273 16.9486C3.89661 16.9039 3.84081 16.8595 3.78597 16.8135C3.72256 16.7609 3.66137 16.706 3.59987 16.6515C3.54597 16.6036 3.49176 16.5564 3.43913 16.5076C3.37858 16.4511 3.31993 16.3925 3.26096 16.3345C3.20992 16.2841 3.15793 16.2343 3.10784 16.1826C3.09864 16.1728 3.08977 16.1626 3.08057 16.1531C3.7719 15.7957 4.50036 15.5153 5.25287 15.3168C5.64429 16.5649 6.34065 17.6957 7.27902 18.6069C7.25334 18.6003 7.22735 18.5949 7.20167 18.5879ZM9.17202 18.8637C7.81544 18.671 6.62625 17.2551 5.87806 15.1643C6.95977 14.9221 8.06364 14.7921 9.17202 14.7766V18.8637ZM9.17202 14.1425C7.99623 14.158 6.82539 14.2976 5.67896 14.5591C5.28089 13.1837 5.0709 11.7607 5.05473 10.3289H9.17202V14.1425ZM9.17202 9.69486H5.05473C5.07086 8.26311 5.28085 6.84011 5.67896 5.46471C6.82539 5.72614 7.99627 5.86579 9.17202 5.88129V9.69486ZM9.17202 5.24722C8.0636 5.23177 6.95977 5.10182 5.87806 4.85949C6.62625 2.76867 7.81544 1.3528 9.17202 1.16005V5.24722ZM16.3233 4.35129C17.5738 5.85854 18.2895 7.73767 18.3586 9.69486H14.5574C14.5429 8.21064 14.3276 6.73521 13.9174 5.30873C14.7542 5.08518 15.5617 4.76383 16.3233 4.35129ZM11.7739 1.43555C11.8405 1.45203 11.9067 1.47296 11.9727 1.4923C12.0529 1.51576 12.1334 1.53922 12.2127 1.5649C12.2796 1.58645 12.3455 1.6096 12.4114 1.63274C12.4894 1.65969 12.5674 1.68727 12.6445 1.71675C12.7104 1.7418 12.7754 1.76811 12.8407 1.79474C12.9165 1.82645 12.9923 1.85815 13.0674 1.88985C13.1321 1.91839 13.1964 1.94775 13.2605 1.97799C13.3343 2.01286 13.4079 2.04837 13.4824 2.08515C13.5458 2.11685 13.6092 2.14855 13.6726 2.18311C13.7443 2.22147 13.8153 2.26078 13.8863 2.30136C13.9497 2.33655 14.0099 2.37269 14.0711 2.40947C14.1409 2.45132 14.2093 2.49443 14.2778 2.5385C14.3381 2.57686 14.3983 2.61586 14.4576 2.6558C14.5251 2.70146 14.5917 2.74869 14.6579 2.79625C14.7163 2.83778 14.7743 2.87963 14.8317 2.92306C14.897 2.9722 14.961 3.02324 15.0254 3.0746C15.0812 3.11899 15.1373 3.16337 15.1921 3.20966C15.2555 3.26228 15.3167 3.31713 15.3782 3.37166C15.4321 3.41953 15.4863 3.46677 15.539 3.51559C15.5995 3.57203 15.6582 3.63068 15.7171 3.68869C15.7682 3.7391 15.8202 3.78887 15.8703 3.84055C15.8795 3.85038 15.8883 3.86052 15.8975 3.87004C15.2062 4.22741 14.4777 4.50786 13.7252 4.70637C13.3331 3.45813 12.6358 2.3274 11.6965 1.41653C11.7222 1.42318 11.7482 1.42857 11.7739 1.43555ZM9.80608 1.16005C11.1627 1.3528 12.3518 2.76867 13.1 4.85949C12.0183 5.1017 10.9145 5.23165 9.80608 5.24722V1.16005ZM9.80608 5.88129C10.9819 5.86583 12.1527 5.72618 13.2991 5.46471C13.6972 6.84011 13.9072 8.26311 13.9234 9.69486H9.80608V5.88129ZM9.80608 10.3289H13.9234C13.9072 11.7607 13.6973 13.1837 13.2991 14.5591C12.1527 14.2977 10.9819 14.158 9.80608 14.1425V10.3289ZM9.80608 18.8637V14.7766C10.9145 14.792 12.0183 14.922 13.1 15.1643C12.3518 17.2551 11.1627 18.671 9.80608 18.8637ZM15.8674 16.1829C15.8173 16.2346 15.7656 16.2844 15.7146 16.3348C15.6556 16.3928 15.5967 16.4514 15.5361 16.5079C15.4835 16.557 15.4293 16.603 15.3754 16.6521C15.3139 16.7067 15.2527 16.7612 15.1899 16.8138C15.1344 16.8601 15.078 16.9048 15.0216 16.9498C14.9582 17.0005 14.8948 17.0513 14.8295 17.1001C14.7718 17.1435 14.7131 17.1857 14.6541 17.2269C14.5885 17.2738 14.5226 17.322 14.4557 17.3658C14.3958 17.4063 14.3352 17.4457 14.2743 17.4843C14.2065 17.5281 14.1381 17.5704 14.0692 17.6111C14.0058 17.6482 13.9452 17.6844 13.8828 17.7202C13.8126 17.7602 13.742 17.7991 13.671 17.8372C13.6076 17.871 13.5442 17.9041 13.4808 17.9364C13.4085 17.9729 13.3356 18.0081 13.2624 18.0426C13.199 18.0727 13.133 18.1029 13.0677 18.1314C12.9932 18.1631 12.9177 18.1948 12.8423 18.2265C12.7767 18.2531 12.7114 18.2798 12.6454 18.3048C12.5681 18.3343 12.4904 18.3619 12.4124 18.3888C12.3465 18.412 12.2805 18.4351 12.2136 18.4567C12.1344 18.4824 12.0551 18.5058 11.9743 18.529C11.908 18.5486 11.8414 18.5683 11.7745 18.5863C11.7489 18.593 11.7232 18.5984 11.6975 18.605C12.6359 17.6939 13.3323 16.563 13.7236 15.3149C14.4761 15.5133 15.2046 15.7937 15.8959 16.1509C15.8855 16.1623 15.8766 16.1734 15.8674 16.1829ZM16.3233 15.6725C15.5618 15.2599 14.7542 14.9385 13.9174 14.7151C14.3276 13.2886 14.5429 11.8132 14.5574 10.3289H18.3586C18.2896 12.2861 17.5738 14.1653 16.3233 15.6725Z" fill="white"/>
</svg>
