<svg width="211" height="71" viewBox="0 0 211 71" fill="none" xmlns="http://www.w3.org/2000/svg">
<path d="M90.2978 37.3327C90.2978 47.3769 82.4805 54.7782 72.8869 54.7782C63.2934 54.7782 55.4761 47.3769 55.4761 37.3327C55.4761 27.2177 63.2934 19.8871 72.8869 19.8871C82.4805 19.8871 90.2978 27.2177 90.2978 37.3327ZM82.6761 37.3327C82.6761 31.056 78.1454 26.7615 72.8869 26.7615C67.6285 26.7615 63.0977 31.056 63.0977 37.3327C63.0977 43.5464 67.6285 47.9038 72.8869 47.9038C78.1454 47.9038 82.6761 43.5385 82.6761 37.3327Z" fill="#EA4335"/>
<path d="M127.858 37.3327C127.858 47.3769 120.041 54.7782 110.447 54.7782C100.854 54.7782 93.0366 47.3769 93.0366 37.3327C93.0366 27.2256 100.854 19.8871 110.447 19.8871C120.041 19.8871 127.858 27.2177 127.858 37.3327ZM120.237 37.3327C120.237 31.056 115.706 26.7615 110.447 26.7615C105.189 26.7615 100.658 31.056 100.658 37.3327C100.658 43.5464 105.189 47.9038 110.447 47.9038C115.706 47.9038 120.237 43.5385 120.237 37.3327Z" fill="#FBBC05"/>
<path d="M163.854 20.9411V52.2613C163.854 65.1449 156.295 70.4069 147.359 70.4069C138.947 70.4069 133.884 64.7516 131.974 60.1267L138.61 57.3502C139.792 60.1897 142.687 63.5403 147.351 63.5403C153.071 63.5403 156.616 59.993 156.616 53.3152V50.8062H156.35C154.644 52.922 151.357 54.7704 147.21 54.7704C138.532 54.7704 130.582 47.1723 130.582 37.3956C130.582 27.548 138.532 19.8871 147.21 19.8871C151.349 19.8871 154.636 21.7355 156.35 23.7883H156.616V20.9489H163.854V20.9411ZM157.156 37.3956C157.156 31.2527 153.079 26.7615 147.891 26.7615C142.632 26.7615 138.227 31.2527 138.227 37.3956C138.227 43.4756 142.632 47.9038 147.891 47.9038C153.079 47.9038 157.156 43.4756 157.156 37.3956Z" fill="#4285F4"/>
<path d="M175.787 2.58289V53.7083H168.354V2.58289H175.787Z" fill="#34A853"/>
<path d="M204.756 43.0742L210.672 47.0384C208.762 49.8778 204.161 54.7702 196.211 54.7702C186.351 54.7702 178.988 47.1092 178.988 37.3246C178.988 26.9501 186.414 19.879 195.358 19.879C204.365 19.879 208.77 27.0838 210.21 30.9772L211 32.9593L187.799 42.618C189.575 46.1182 192.337 47.9036 196.211 47.9036C200.092 47.9036 202.784 45.9844 204.756 43.0742ZM186.547 36.7976L202.056 30.3243C201.203 28.1456 198.637 26.6276 195.616 26.6276C191.743 26.6276 186.351 30.0648 186.547 36.7976Z" fill="#EA4335"/>
<path d="M27.337 32.7942V25.3928H52.1504C52.393 26.6827 52.5182 28.2086 52.5182 29.8604C52.5182 35.4134 51.008 42.2799 46.1408 47.1722C41.4066 52.1274 35.3577 54.7702 27.3448 54.7702C12.4928 54.7702 0.00390625 42.6103 0.00390625 27.6816C0.00390625 12.753 12.4928 0.593018 27.3448 0.593018C35.5612 0.593018 41.4144 3.83358 45.8121 8.05733L40.6162 13.28C37.4627 10.3068 33.1902 7.99441 27.337 7.99441C16.4914 7.99441 8.00899 16.7801 8.00899 27.6816C8.00899 38.5831 16.4914 47.3689 27.337 47.3689C34.3718 47.3689 38.3782 44.5294 40.9449 41.9496C43.0264 39.8573 44.3958 36.8685 44.9357 32.7863L27.337 32.7942Z" fill="#4285F4"/>
</svg>
