<svg width="76" height="79" viewBox="0 0 76 79" fill="none" xmlns="http://www.w3.org/2000/svg">
<path fill-rule="evenodd" clip-rule="evenodd" d="M10.3787 17.337C9.5 18.2157 9.5 19.6299 9.5 22.4583V56.5417C9.5 59.3701 9.5 60.7843 10.3787 61.663C11.2574 62.5417 12.6716 62.5417 15.5 62.5417H60.5C63.3284 62.5417 64.7426 62.5417 65.6213 61.663C66.5 60.7843 66.5 59.3701 66.5 56.5417V22.4583C66.5 19.6299 66.5 18.2157 65.6213 17.337C64.7426 16.4583 63.3284 16.4583 60.5 16.4583H15.5C12.6716 16.4583 11.2574 16.4583 10.3787 17.337ZM19.5696 28.8031C19.1156 28.4885 18.4926 28.6015 18.1781 29.0554C17.8635 29.5094 17.9765 30.1324 18.4304 30.4469L36.8608 43.2189C37.5461 43.6937 38.4539 43.6937 39.1392 43.2189L57.5696 30.4469C58.0235 30.1324 58.1365 29.5094 57.8219 29.0554C57.5074 28.6015 56.8844 28.4885 56.4304 28.8031L38 41.575L19.5696 28.8031Z" fill="#57B956"/>
</svg>
