<svg width="288" height="63" viewBox="0 0 288 63" fill="none" xmlns="http://www.w3.org/2000/svg">
<g clip-path="url(#clip0_11_385)">
<path d="M287.647 28.5491V23.4444H281.379V15.5085L281.168 15.5742L275.281 17.396L275.165 17.4316V23.4447H265.873V20.0949C265.873 18.5351 266.218 17.3415 266.897 16.5455C267.572 15.759 268.537 15.3591 269.769 15.3591C270.654 15.3591 271.57 15.57 272.493 15.9859L272.724 16.0903V10.7144L272.615 10.6739C271.755 10.3611 270.584 10.2036 269.134 10.2036C267.306 10.2036 265.645 10.606 264.196 11.4034C262.746 12.202 261.606 13.342 260.807 14.7914C260.011 16.2391 259.607 17.9112 259.607 19.7616V23.4444H255.243V28.5491H259.607V50.0543H265.873V28.5491H275.165V42.2153C275.165 47.8436 277.79 50.6959 282.967 50.6959C283.817 50.6959 284.713 50.5951 285.627 50.3977C286.558 50.1949 287.191 49.9925 287.565 49.7763L287.647 49.7269V44.575L287.392 44.7454C287.052 44.9746 286.629 45.1618 286.132 45.3011C285.634 45.4429 285.217 45.5139 284.895 45.5139C283.682 45.5139 282.785 45.1835 282.228 44.5312C281.665 43.873 281.379 42.7221 281.379 41.1121V28.5491H287.647ZM241.252 45.5148C238.978 45.5148 237.185 44.7522 235.921 43.25C234.65 41.7402 234.006 39.5877 234.006 36.8528C234.006 34.0312 234.65 31.8228 235.922 30.2863C237.186 28.76 238.962 27.9853 241.201 27.9853C243.373 27.9853 245.102 28.7251 246.341 30.1855C247.586 31.6535 248.218 33.8442 248.218 36.6986C248.218 39.5882 247.624 41.8078 246.452 43.2926C245.289 44.7662 243.539 45.5148 241.252 45.5148ZM241.53 22.8034C237.192 22.8034 233.746 24.0891 231.289 26.6249C228.833 29.1609 227.588 32.6705 227.588 37.0569C227.588 41.2232 228.803 44.5744 231.201 47.0159C233.598 49.4582 236.86 50.6953 240.896 50.6953C245.101 50.6953 248.479 49.3916 250.935 46.8207C253.39 44.2526 254.634 40.7762 254.634 36.4923C254.634 32.2608 253.467 28.8846 251.163 26.4595C248.859 24.0332 245.617 22.8034 241.53 22.8034ZM217.487 22.8034C214.535 22.8034 212.094 23.5668 210.229 25.0721C208.353 26.5864 207.401 28.5724 207.401 30.9757C207.401 32.2249 207.607 33.3345 208.011 34.2757C208.418 35.22 209.047 36.0514 209.883 36.7492C210.713 37.4413 211.994 38.1663 213.692 38.9039C215.119 39.4978 216.183 40.0001 216.859 40.396C217.52 40.7841 217.989 41.1741 218.253 41.554C218.511 41.9258 218.641 42.4346 218.641 43.0624C218.641 44.8502 217.318 45.72 214.594 45.72C213.583 45.72 212.431 45.5066 211.169 45.086C209.915 44.6718 208.732 44.0651 207.661 43.2873L207.401 43.0986V49.1993L207.496 49.2442C208.383 49.6581 209.501 50.0071 210.818 50.2817C212.133 50.5566 213.327 50.6964 214.365 50.6964C217.568 50.6964 220.147 49.9293 222.028 48.415C223.922 46.8904 224.882 44.8575 224.882 42.3711C224.882 40.5774 224.365 39.0393 223.347 37.7988C222.335 36.5684 220.58 35.4388 218.132 34.4403C216.181 33.6485 214.931 32.9911 214.416 32.4866C213.919 31.9991 213.666 31.3098 213.666 30.4368C213.666 29.663 213.978 29.043 214.617 28.5409C215.262 28.0364 216.159 27.7797 217.284 27.7797C218.328 27.7797 219.396 27.9465 220.458 28.2734C221.519 28.6002 222.452 29.0379 223.23 29.5734L223.486 29.7503V23.9633L223.387 23.9206C222.669 23.6092 221.723 23.3427 220.573 23.1265C219.428 22.9117 218.39 22.8034 217.487 22.8034ZM191.068 45.5148C188.795 45.5148 187.001 44.7522 185.738 43.25C184.466 41.7402 183.823 39.5882 183.823 36.8528C183.823 34.0312 184.467 31.8228 185.739 30.2863C187.002 28.76 188.778 27.9853 191.018 27.9853C193.19 27.9853 194.919 28.7251 196.158 30.1855C197.403 31.6535 198.035 33.8442 198.035 36.6986C198.035 39.5882 197.44 41.8078 196.269 43.2926C195.105 44.7662 193.356 45.5148 191.068 45.5148ZM191.347 22.8034C187.008 22.8034 183.562 24.0891 181.106 26.6249C178.651 29.1609 177.405 32.6705 177.405 37.0569C177.405 41.2249 178.621 44.5744 181.018 47.0159C183.415 49.4582 186.677 50.6953 190.713 50.6953C194.918 50.6953 198.296 49.3916 200.752 46.8207C203.207 44.2526 204.452 40.7762 204.452 36.4923C204.452 32.2608 203.284 28.8846 200.98 26.4595C198.675 24.0332 195.434 22.8034 191.347 22.8034ZM167.894 28.0527V23.4444H161.705V50.0537H167.894V36.442C167.894 34.1275 168.413 32.226 169.437 30.7898C170.448 29.3707 171.795 28.6516 173.44 28.6516C173.997 28.6516 174.623 28.7445 175.301 28.9284C175.971 29.1112 176.457 29.3097 176.744 29.5187L177.004 29.7093V23.3989L176.904 23.3554C176.327 23.1077 175.512 22.9828 174.48 22.9828C172.925 22.9828 171.533 23.4882 170.341 24.4833C169.295 25.358 168.538 26.5572 167.96 28.0527H167.894ZM150.622 22.8034C147.783 22.8034 145.25 23.4191 143.096 24.633C140.937 25.8496 139.268 27.5866 138.132 29.7952C137.001 31.9986 136.427 34.5722 136.427 37.4424C136.427 39.9566 136.984 42.2638 138.084 44.2973C139.185 46.3341 140.743 47.9276 142.715 49.0328C144.685 50.1365 146.961 50.6961 149.481 50.6961C152.423 50.6961 154.934 50.1014 156.947 48.9286L157.029 48.8814V43.1469L156.768 43.339C155.856 44.0109 154.837 44.5472 153.741 44.9336C152.647 45.3196 151.65 45.5148 150.775 45.5148C148.347 45.5148 146.397 44.7463 144.982 43.2311C143.564 41.7141 142.845 39.5837 142.845 36.9031C142.845 34.2055 143.595 32.0205 145.072 30.4082C146.546 28.8007 148.499 27.9853 150.877 27.9853C152.911 27.9853 154.894 28.6819 156.769 30.0578L157.029 30.2484V24.2062L156.945 24.1584C156.239 23.7589 155.276 23.4289 154.082 23.1788C152.892 22.9291 151.728 22.8034 150.622 22.8034ZM132.165 23.4447H125.976V50.0537H132.165V23.4447ZM129.134 12.109C128.115 12.109 127.227 12.4597 126.497 13.1547C125.764 13.8516 125.392 14.7291 125.392 15.7646C125.392 16.7838 125.759 17.6453 126.485 18.3237C127.207 19.0001 128.098 19.3429 129.134 19.3429C130.17 19.3429 131.064 19.0001 131.794 18.3248C132.529 17.6453 132.901 16.7841 132.901 15.7646C132.901 14.7653 132.539 13.8968 131.824 13.1828C131.111 12.4701 130.205 12.109 129.134 12.109ZM113.692 21.4814V50.0537H120.008V12.9236H111.266L100.155 40.5027L89.3719 12.9236H80.2742V50.0534H86.2096V21.4786H86.4134L97.7999 50.0537H102.279L113.488 21.4814H113.692Z" fill="#706D6E"/>
<path d="M29.7618 29.9621H0.647217V0.516602H29.7618V29.9621Z" fill="#F1511B"/>
<path d="M61.9075 29.9615H32.7935V0.515991H61.9075V29.9615Z" fill="#80CC28"/>
<path d="M29.761 62.4841H0.647217V33.0388H29.761V62.4841Z" fill="#00ADEF"/>
<path d="M61.9075 62.4841H32.7935V33.0388H61.9075V62.4841Z" fill="#FBBC09"/>
</g>
<defs>
<clipPath id="clip0_11_385">
<rect width="287" height="62" fill="white" transform="translate(0.647217 0.5)"/>
</clipPath>
</defs>
</svg>
