<svg width="54" height="46" viewBox="0 0 54 46" fill="none" xmlns="http://www.w3.org/2000/svg">
<path fill-rule="evenodd" clip-rule="evenodd" d="M23.5935 24.5882L11.2757 21.0906C8.53256 20.3117 7.16101 19.9222 7.16101 19.1666C7.16101 18.4111 8.53256 18.0216 11.2757 17.2427L41.1224 8.76771C42.8127 8.28776 43.6578 8.04778 44.0747 8.5069C44.4916 8.96602 44.1715 9.78416 43.5312 11.4204L43.5312 11.4205L33.3625 37.407C32.5759 39.4173 32.1826 40.4224 31.5 40.4224C30.8175 40.4224 30.4242 39.4173 29.6376 37.407L25.1356 25.9019L34.3985 18.0112C34.8189 17.6531 34.8694 17.0219 34.5113 16.6015C34.1532 16.1811 33.522 16.1306 33.1016 16.4887L23.5935 24.5882Z" fill="#44AC80"/>
</svg>
