<svg width="25" height="31" viewBox="0 0 25 31" fill="none" xmlns="http://www.w3.org/2000/svg">
<path d="M13.8578 19.0685L13.0933 19.4972C12.6066 19.7702 12.3632 19.9066 12.0977 19.9045C11.8321 19.9023 11.591 19.762 11.1088 19.4813L11.1088 19.4812L10.3513 19.0403C8.19428 17.7846 7.11578 17.1567 6.57459 17.6352C6.03341 18.1137 6.52439 19.261 7.50636 21.5556L10.2014 27.8531C10.9724 29.6549 11.358 30.5557 12.012 30.561C12.6659 30.5663 13.0659 29.6717 13.8659 27.8826L16.6619 21.6292C17.6806 19.3507 18.19 18.2115 17.6566 17.7244C17.1232 17.2372 16.0347 17.8476 13.8578 19.0685Z" fill="#222222"/>
</svg>
