<svg width="54" height="46" viewBox="0 0 54 46" fill="none" xmlns="http://www.w3.org/2000/svg">
<path fill-rule="evenodd" clip-rule="evenodd" d="M23.5933 24.5882L11.2755 21.0906C8.53244 20.3117 7.16089 19.9222 7.16089 19.1666C7.16089 18.4111 8.53244 18.0216 11.2755 17.2427L41.1223 8.76771C42.8125 8.28775 43.6577 8.04778 44.0746 8.5069C44.4915 8.96602 44.1713 9.78416 43.5311 11.4204L43.531 11.4205L33.3624 37.407C32.5758 39.4172 32.1825 40.4224 31.4999 40.4224C30.8174 40.4224 30.4241 39.4173 29.6374 37.407L25.1355 25.9019L34.3984 18.0112C34.8188 17.6531 34.8693 17.0219 34.5112 16.6015C34.153 16.1811 33.5219 16.1306 33.1015 16.4887L23.5933 24.5882Z" fill="#222222"/>
</svg>
