<svg width="281" height="71" viewBox="0 0 281 71" fill="none" xmlns="http://www.w3.org/2000/svg">
<g clip-path="url(#clip0_11_392)">
<path d="M90.5051 55.626L93.9911 47.5757C97.7581 50.3709 102.762 51.8245 107.71 51.8245C111.365 51.8245 113.67 50.4268 113.67 48.3024C113.614 42.3764 91.7983 47.0166 91.6296 32.1457C91.5734 24.5985 98.3204 18.7843 107.879 18.7843C113.557 18.7843 119.236 20.182 123.284 23.3686L120.023 31.5867C116.312 29.2386 111.702 27.5615 107.316 27.5615C104.336 27.5615 102.369 28.9591 102.369 30.7481C102.425 36.5623 124.409 33.3757 124.634 47.5757C124.634 55.2906 118.055 60.7134 108.61 60.7134C101.694 60.7134 95.3405 59.0922 90.5051 55.626ZM224.264 44.6686C222.521 47.6875 219.26 49.756 215.493 49.756C209.927 49.756 205.429 45.2835 205.429 39.7489C205.429 34.2142 209.927 29.7418 215.493 29.7418C219.26 29.7418 222.521 31.8103 224.264 34.8292L233.879 29.5182C230.28 23.1449 223.365 18.7843 215.493 18.7843C203.855 18.7843 194.409 28.1764 194.409 39.7489C194.409 51.3213 203.855 60.7134 215.493 60.7134C223.421 60.7134 230.28 56.4087 233.879 49.9796L224.264 44.6686ZM129.469 1.39771H141.501V59.9308H129.469V1.39771ZM238.602 1.39771V59.9308H250.634V42.3764L264.915 59.9308H280.32L262.16 39.078L278.971 19.6229H264.24L250.634 35.7796V1.39771H238.602ZM177.26 44.7804C175.517 47.6316 171.919 49.756 167.871 49.756C162.304 49.756 157.806 45.2835 157.806 39.7489C157.806 34.2142 162.304 29.7418 167.871 29.7418C171.919 29.7418 175.517 31.978 177.26 34.8851V44.7804ZM177.26 19.6229V24.3749C175.292 21.0764 170.401 18.7843 165.284 18.7843C154.714 18.7843 146.393 28.0646 146.393 39.693C146.393 51.3213 154.714 60.7134 165.284 60.7134C170.401 60.7134 175.292 58.4213 177.26 55.1229V59.8749H189.292V19.6229H177.26Z" fill="black"/>
<path d="M16.12 44.7244C16.12 48.8055 12.8027 52.1039 8.6983 52.1039C4.59388 52.1039 1.27661 48.8055 1.27661 44.7244C1.27661 40.6433 4.59388 37.3448 8.6983 37.3448H16.12V44.7244ZM19.8308 44.7244C19.8308 40.6433 23.1481 37.3448 27.2525 37.3448C31.3569 37.3448 34.6742 40.6433 34.6742 44.7244V63.1732C34.6742 67.2543 31.3569 70.5527 27.2525 70.5527C23.1481 70.5527 19.8308 67.2543 19.8308 63.1732V44.7244Z" fill="#E01E5A"/>
<path d="M27.2521 15.0945C23.1477 15.0945 19.8304 11.7961 19.8304 7.71498C19.8304 3.63387 23.1477 0.335449 27.2521 0.335449C31.3565 0.335449 34.6738 3.63387 34.6738 7.71498V15.0945H27.2521ZM27.2521 18.8402C31.3565 18.8402 34.6738 22.1386 34.6738 26.2197C34.6738 30.3008 31.3565 33.5992 27.2521 33.5992H8.64166C4.53724 33.5992 1.21997 30.3008 1.21997 26.2197C1.21997 22.1386 4.53724 18.8402 8.64166 18.8402H27.2521Z" fill="#36C5F0"/>
<path d="M56.9951 26.2197C56.9951 22.1386 60.3124 18.8402 64.4168 18.8402C68.5212 18.8402 71.8385 22.1386 71.8385 26.2197C71.8385 30.3008 68.5212 33.5992 64.4168 33.5992H56.9951V26.2197ZM53.2843 26.2197C53.2843 30.3008 49.967 33.5992 45.8626 33.5992C41.7582 33.5992 38.4409 30.3008 38.4409 26.2197V7.71498C38.4409 3.63387 41.7582 0.335449 45.8626 0.335449C49.967 0.335449 53.2843 3.63387 53.2843 7.71498V26.2197Z" fill="#2EB67D"/>
<path d="M45.8626 55.7937C49.967 55.7937 53.2843 59.0921 53.2843 63.1732C53.2843 67.2543 49.967 70.5527 45.8626 70.5527C41.7582 70.5527 38.4409 67.2543 38.4409 63.1732V55.7937H45.8626ZM45.8626 52.1039C41.7582 52.1039 38.4409 48.8055 38.4409 44.7244C38.4409 40.6433 41.7582 37.3448 45.8626 37.3448H64.473C68.5775 37.3448 71.8947 40.6433 71.8947 44.7244C71.8947 48.8055 68.5775 52.1039 64.473 52.1039H45.8626Z" fill="#ECB22E"/>
</g>
<defs>
<clipPath id="clip0_11_392">
<rect width="280" height="71" fill="white" transform="translate(0.825439)"/>
</clipPath>
</defs>
</svg>
