<svg width="42" height="42" viewBox="0 0 42 42" fill="none" xmlns="http://www.w3.org/2000/svg">
<path fill-rule="evenodd" clip-rule="evenodd" d="M41.25 20.6249V20.625V20.6251C41.25 27.0317 41.25 30.2351 40.2033 32.7619C38.8078 36.131 36.131 38.8078 32.7619 40.2033C30.2351 41.25 27.0317 41.25 20.6251 41.25H20.625H13.75H13.75C7.26818 41.25 4.02728 41.25 2.01364 39.2364C0 37.2227 0 33.9818 0 27.5V20.625C0 14.2183 0 11.015 1.04666 8.4881C2.4422 5.11897 5.11897 2.4422 8.4881 1.04666C11.015 0 14.2183 0 20.625 0C27.0317 0 30.235 0 32.7619 1.04666C36.131 2.4422 38.8078 5.11897 40.2033 8.4881C41.25 11.0149 41.25 14.2183 41.25 20.6249ZM20.625 12.7504C21.1773 12.7504 21.625 13.1981 21.625 13.7504V19.6243H27.5C28.0523 19.6243 28.5 20.072 28.5 20.6243C28.5 21.1765 28.0523 21.6243 27.5 21.6243H21.625V27.5004C21.625 28.0527 21.1773 28.5004 20.625 28.5004C20.0727 28.5004 19.625 28.0527 19.625 27.5004V21.6243H13.75C13.1977 21.6243 12.75 21.1765 12.75 20.6243C12.75 20.072 13.1977 19.6243 13.75 19.6243H19.625V13.7504C19.625 13.1981 20.0727 12.7504 20.625 12.7504Z" fill="white"/>
</svg>
