<svg width="96" height="97" viewBox="0 0 96 97" fill="none" xmlns="http://www.w3.org/2000/svg">
<path d="M30.9187 4.66482C29.475 1.14099 25.6688 -0.734595 22.0312 0.269506L5.53125 4.81638C2.26875 5.72576 0 8.71912 0 12.1293C0 59 37.6125 97.0043 84 97.0043C87.375 97.0043 90.3375 94.7119 91.2375 91.4154L95.7375 74.7435C96.7313 71.0681 94.875 67.2222 91.3875 65.7635L73.3875 58.1853C70.3312 56.897 66.7875 57.7875 64.7063 60.383L57.1313 69.723C43.9313 63.4142 33.2438 52.6154 27 39.2779L36.2438 31.6429C38.8125 29.5211 39.6937 25.9593 38.4187 22.8713L30.9187 4.68376V4.66482Z" fill="black"/>
</svg>
